<?xml version="1.0" encoding="UTF-8" standalone="no"?>
<!-- Created with Inkscape (http://www.inkscape.org/) -->
<svg xmlns:dc="http://purl.org/dc/elements/1.1/" xmlns:cc="http://creativecommons.org/ns#" xmlns:rdf="http://www.w3.org/1999/02/22-rdf-syntax-ns#" xmlns:svg="http://www.w3.org/2000/svg" xmlns="http://www.w3.org/2000/svg" xmlns:sodipodi="http://sodipodi.sourceforge.net/DTD/sodipodi-0.dtd" xmlns:inkscape="http://www.inkscape.org/namespaces/inkscape" id="svg2" version="1.1" inkscape:version="0.48.3.1 r9886" width="118" height="71" sodipodi:docname="ppxf-640x400.svg" inkscape:export-filename="/home/qubodup/spacey.png" inkscape:export-xdpi="90" inkscape:export-ydpi="90">
  <metadata id="metadata8">
    <rdf:RDF>
      <cc:Work rdf:about="">
        <dc:format>image/svg+xml</dc:format>
        <dc:type rdf:resource="http://purl.org/dc/dcmitype/StillImage"/>
        <dc:title/>
      </cc:Work>
    </rdf:RDF>
  </metadata>
  <defs id="defs6"/>
  <sodipodi:namedview pagecolor="#333333" bordercolor="#666666" borderopacity="0.17254902" objecttolerance="10" gridtolerance="10" guidetolerance="10" inkscape:pageopacity="1" inkscape:pageshadow="2" inkscape:window-width="1024" inkscape:window-height="581" id="namedview4" showgrid="false" inkscape:showpageshadow="false" inkscape:zoom="2.8284271" inkscape:cx="103.6696" inkscape:cy="53.045812" inkscape:window-x="0" inkscape:window-y="0" inkscape:window-maximized="0" inkscape:current-layer="svg2" fit-margin-top="0" fit-margin-left="0" fit-margin-right="0" fit-margin-bottom="0">
    <inkscape:grid type="xygrid" id="grid2987" empspacing="5" visible="true" enabled="true" snapvisiblegridlinesonly="true" originx="104.5px" originy="-130.5px"/>
  </sodipodi:namedview>
  <path style="fill:#cacaca;fill-opacity:1;stroke:#555555;stroke-opacity:1" d="m 116.5,18.5 c -7,-5 -13.94564,-9.99612 -28,-11 -14.05436,-1.00388 -36,-1 -60,6 l 0,8 c 47.659213,6.808459 68.577913,7.44351 88,-2 0,-1 0,0 0,-1 z" id="path2993" inkscape:connector-curvature="0" sodipodi:nodetypes="czcccc"/>
  <path style="fill:none;stroke:#333333;stroke-opacity:1" d="m 116.5,19 -31,1.5 -29,0 -28,-2" id="path2995" inkscape:connector-curvature="0" sodipodi:nodetypes="cccc"/>
  <path sodipodi:nodetypes="czcc" inkscape:connector-curvature="0" id="path3760" d="m 28,13.49961 c -2.5,-6.99961 -27,-2 -27,4 0,6 24.5,11.00039 27,4 z" style="fill:#5783ff;fill-opacity:1;stroke:none"/>
  <path style="fill:#f02800;fill-opacity:1;stroke:none" d="m 28,13.49961 c -3,-5 -25,-2 -25,4 0,6 22,9 25,4 z" id="path3773" inkscape:connector-curvature="0" sodipodi:nodetypes="czcc"/>
  <path sodipodi:nodetypes="czcc" inkscape:connector-curvature="0" id="path3775" d="m 28,15.49961 c -4,-6 -20,-2 -20,2 0,4 16,7 20,2 z" style="fill:#f0dd00;fill-opacity:1;stroke:none"/>
  <path sodipodi:nodetypes="czccscc" inkscape:connector-curvature="0" id="path3771" d="m 116.5,18.5 c -7,-5 -13.94564,-9.99612 -28,-11 -14.05436,-1.00388 -36,-1 -60,6 l 0.03682,8.981079 C 77.506752,29.476784 96.513491,29.765447 116.5,19.5 c 0.0123,-0.0063 -0.0122,-0.993689 -2e-5,-0.999999 z" style="fill:none;stroke:#555555;stroke-opacity:1"/>
  <path style="fill:#cacaca;fill-opacity:1;stroke:#555555;stroke-opacity:1" d="m 50.5,13.5 c -8,-6 -21.528392,-12.12704 -24,-12 0,0 -3,0 -6,0 l 11,14" id="path2989" inkscape:connector-curvature="0" sodipodi:nodetypes="cccc"/>
  <path style="fill:#cacaca;fill-opacity:1;stroke:#555555;stroke-opacity:1" d="m 56.5,20.5 -10,13 14,0 25,-13 c -4,-3 -23,-4 -29,0 z" id="path2991" inkscape:connector-curvature="0" sodipodi:nodetypes="ccccc"/>
  <path style="fill:#555555;fill-opacity:1;stroke:none" d="m 104.5,15.5 c -3.5,-4.375 -18.75,-7.125 -24,-5 -5.25,2.125 1,3 8,5 7,2 19.5,4.375 16,0 z" id="path3765" inkscape:connector-curvature="0" sodipodi:nodetypes="zzzz"/>
  <path style="fill:#19a8ff;fill-opacity:1;stroke:none" d="m 82.5,40 c -0.677334,0 -2,0 -2,2 0,2 11,-1 11,13 0,14 -11,11 -11,13 0,2 -0.03947,2 2,2 2.039468,0 13,0 13,-15 0,-15 -12.322666,-15 -13,-15 z" id="path3762" inkscape:connector-curvature="0" sodipodi:nodetypes="zzzzzzz"/>
  <path sodipodi:nodetypes="zzzzzzzzz" inkscape:connector-curvature="0" id="path3766" d="m 82.5,45 c -2,0 -2,0 -2,2 0,2 5,0.08709 5,3 0,2.912912 1,2 1,5 0,3 -1,2.912912 -1,5 0,2.087088 -5,1 -5,3 0,2 0,2 2,2 2,0 6,0 6,-10 0,-10 -4,-10 -6,-10 z" style="fill:#19a8ff;fill-opacity:1;stroke:none"/>
  <path style="fill:#19a8ff;fill-opacity:1;stroke:none" d="m 82.5,50 c -2,0 -2,0 -2,2 0,2 2,0 2,3 0,3 -2,1 -2,3 0,2 0,2 2,2 2,0 2,0 2,-5 0,-5 0,-5 -2,-5 z" id="path3768" inkscape:connector-curvature="0" sodipodi:nodetypes="zzzzzzz"/>
  <path style="fill:#19a8ff;fill-opacity:1;stroke:none" d="m 72.5,45 c -2,0 -2,0 -2,2 0,2 5,0.08709 5,3 0,2.912912 1,2 1,5 0,3 -1,2.912912 -1,5 0,2.087088 -5,1 -5,3 0,2 0,2 2,2 2,0 6,0 6,-10 0,-10 -4,-10 -6,-10 z" id="path3770" inkscape:connector-curvature="0" sodipodi:nodetypes="zzzzzzzzz"/>
  <path sodipodi:nodetypes="zzzzzzz" inkscape:connector-curvature="0" id="path3772" d="m 72.5,50 c -2,0 -2,0 -2,2 0,2 2,0 2,3 0,3 -2,1 -2,3 0,2 0,2 2,2 2,0 2,0 2,-5 0,-5 0,-5 -2,-5 z" style="fill:#19a8ff;fill-opacity:1;stroke:none"/>
  <path style="fill:#19a8ff;fill-opacity:1;stroke:none" d="m 66.5,50 c -2,0 -2,0 -2,2 0,2 2,0 2,3 0,3 -2,1 -2,3 0,2 0,2 2,2 2,0 2,0 2,-5 0,-5 0,-5 -2,-5 z" id="path3778" inkscape:connector-curvature="0" sodipodi:nodetypes="zzzzzzz"/>
  <rect style="fill:#115d00;fill-opacity:1;stroke:none" id="rect3792" width="11" height="11" x="44" y="51"/>
  <path style="fill:#2eff6b;fill-opacity:1;stroke:none" d="m 42,49 0,15 15,0 0,-15 z m 2,2 11,0 0,11 -11,0 z" id="rect3782" inkscape:connector-curvature="0" sodipodi:nodetypes="cccccccccc"/>
  <path style="fill:#2eff6b;fill-opacity:1;stroke:none" d="m 48,52 0,3 -3,0 0,3 3,0 0,3 3,0 0,-3 3,0 0,-3 -3,0 0,-3 z" id="rect3787" inkscape:connector-curvature="0" sodipodi:nodetypes="ccccccccccccc"/>
  <rect y="51" x="25" height="11" width="11" id="rect3800" style="fill:#43005d;fill-opacity:1;stroke:none"/>
  <path sodipodi:nodetypes="cccccccccc" inkscape:connector-curvature="0" id="path3802" d="m 23,49 0,15 15,0 0,-15 z m 2,2 11,0 0,11 -11,0 z" style="fill:#f82eff;fill-opacity:1;stroke:none"/>
  <path sodipodi:nodetypes="ccccccccccc" inkscape:connector-curvature="0" id="path3804" d="m 30,52 -4,3 0,1 3,0 0,5 3,0 0,-5 3,0 0,-1 -4,-3 z" style="fill:#f82eff;fill-opacity:1;stroke:none"/>
</svg>